<?xml version="1.0" standalone="no"?>
<!DOCTYPE svg PUBLIC "-//W3C//DTD SVG 20010904//EN"
 "http://www.w3.org/TR/2001/REC-SVG-20010904/DTD/svg10.dtd">
<svg version="1.0" xmlns="http://www.w3.org/2000/svg"
 width="151.000000pt" height="151.000000pt" viewBox="0 0 151.000000 151.000000"
 preserveAspectRatio="xMidYMid meet">
<metadata>
Created by potrace 1.14, written by Peter Selinger 2001-2017
</metadata>
<g transform="translate(0.000000,151.000000) scale(0.100000,-0.100000)"
fill="#000000" stroke="none">
<path d="M690 1480 c0 -3 -10 -6 -21 -7 -12 -1 -46 -10 -77 -19 -55 -18 -119
-70 -158 -129 -21 -32 -39 -32 -69 3 -28 32 -25 47 -31 -143 -2 -71 -6 -136
-9 -142 -3 -10 -11 -10 -31 -3 -30 12 -43 2 -45 -35 -1 -11 -2 -31 -3 -45 -1
-14 4 -39 10 -57 11 -29 11 -33 -7 -38 -26 -8 -24 -24 6 -59 30 -35 30 -37 4
-60 -17 -14 -19 -20 -8 -26 7 -5 17 -6 21 -4 4 3 8 -19 9 -48 1 -73 6 -99 27
-128 10 -14 33 -52 52 -84 20 -36 77 -102 140 -165 92 -92 110 -115 129 -168
24 -65 34 -74 49 -47 7 13 14 10 40 -20 17 -20 36 -36 41 -36 5 0 23 16 39 34
26 30 32 33 42 20 19 -22 24 -18 45 36 11 28 23 50 27 50 4 0 8 7 8 15 0 16
127 145 135 137 3 -3 5 1 5 8 0 8 15 27 33 44 19 17 49 60 68 96 19 36 39 68
46 73 18 11 30 65 29 122 -1 43 2 51 22 60 l22 10 -25 27 c-19 20 -22 29 -12
35 7 4 21 21 31 37 19 30 19 30 -2 44 -17 11 -20 18 -11 34 23 43 6 177 -19
143 -4 -6 -17 -11 -29 -12 -26 -3 -23 -19 -27 184 -1 62 -6 116 -10 120 -4 5
-16 -2 -26 -14 -26 -33 -43 -29 -81 19 -50 62 -90 98 -108 98 -10 0 -21 4 -26
9 -26 22 -245 51 -245 31z"/>
</g>
</svg>
