<svg width="41" height="64" viewBox="0 0 41 64" fill="none" xmlns="http://www.w3.org/2000/svg">
<path d="M0.684 36L11.88 10.62H14.4L25.596 36H22.536L19.728 29.52H6.516L3.744 36H0.684ZM13.104 14.076L7.596 27.036H18.684L13.176 14.076H13.104Z" fill="#6F7FAC"/>
<path d="M26.112 51.324C23.616 51.324 21.48 50.796 19.704 49.74C17.928 48.684 16.56 47.184 15.6 45.24C14.664 43.296 14.196 40.98 14.196 38.292C14.196 35.628 14.664 33.324 15.6 31.38C16.56 29.436 17.928 27.936 19.704 26.88C21.48 25.824 23.616 25.296 26.112 25.296C27.864 25.296 29.472 25.572 30.936 26.124C32.424 26.676 33.684 27.48 34.716 28.536L33.564 30.948C32.46 29.916 31.308 29.172 30.108 28.716C28.932 28.236 27.624 27.996 26.184 27.996C23.328 27.996 21.144 28.896 19.632 30.696C18.12 32.496 17.364 35.028 17.364 38.292C17.364 41.58 18.12 44.124 19.632 45.924C21.144 47.724 23.328 48.624 26.184 48.624C27.624 48.624 28.932 48.396 30.108 47.94C31.308 47.46 32.46 46.704 33.564 45.672L34.716 48.084C33.684 49.116 32.424 49.92 30.936 50.496C29.472 51.048 27.864 51.324 26.112 51.324Z" fill="#6F7FAC"/>
</svg>
