<svg width="70" height="70" viewBox="0 0 70 70" fill="none" xmlns="http://www.w3.org/2000/svg">
<g clip-path="url(#clip0_65_718)">
<mask id="mask0_65_718" style="mask-type:luminance" maskUnits="userSpaceOnUse" x="1" y="4" width="68" height="61">
<path d="M9.79835 4.65581L1.04932 54.274L59.7928 64.6321L68.5418 15.0139L9.79835 4.65581Z" fill="white"/>
</mask>
<g mask="url(#mask0_65_718)">
<path d="M46.0274 58.9549C46.297 58.5382 46.529 58.0916 46.7535 57.6596C46.8238 57.525 46.8941 57.3903 46.9653 57.2559C48.2533 54.7608 49.9898 52.5241 52.0876 50.6575C55.5347 47.6299 58.8219 44.531 61.5827 41.8994C62.3459 41.1633 62.958 40.2859 63.3866 39.3161C64.2015 37.4918 64.7959 35.5766 65.1568 33.6114C65.9207 29.4037 65.2465 25.0614 63.2437 21.2828C60.5547 16.0223 56.494 12.8858 51.1692 11.9617C49.0667 11.5905 46.9324 11.4319 44.7982 11.4879C40.6238 11.5649 36.4734 12.1416 32.4359 13.2051C30.3389 13.7788 28.6682 14.5813 27.3283 15.6582C26.7478 16.1101 26.2702 16.6804 25.9273 17.331C25.5844 17.9817 25.3841 18.6982 25.3397 19.4325C25.3023 20.1784 25.4241 20.9234 25.697 21.6184C25.9699 22.3134 26.3875 22.9424 26.9223 23.4637C27.058 23.6008 27.1978 23.7349 27.3573 23.8882L27.4987 24.0249C25.9512 25.3706 25.1828 26.882 25.1486 28.6384C25.1162 30.3362 25.5274 31.1594 27.4476 33.176C25.0732 36.2765 25.8628 38.2017 27.9766 40.2307C27.4339 40.4055 26.9017 40.5736 26.378 40.7391C25.0626 41.154 23.8197 41.5477 22.5808 41.9891C19.7322 43.0034 16.9505 44.0048 14.2369 45.1005C12.6902 45.7347 11.3374 46.7644 10.3143 48.0865C9.17721 49.5431 9.21573 51.0119 10.429 52.4522C10.8667 52.9958 11.4332 53.4213 12.0772 53.6901C12.7212 53.959 13.4221 54.0626 14.1164 53.9915C15.0994 53.9076 16.0879 53.7326 17.0439 53.5636C17.5338 53.4766 18.0236 53.39 18.5147 53.3149C24.2963 52.4285 29.9841 50.7752 35.4845 49.1761L36.3938 48.9114C36.8586 48.777 37.3202 48.66 37.8548 48.5246C38.0327 48.4795 38.2168 48.4329 38.4089 48.3836L38.3289 48.6026C38.2275 48.8823 38.1438 49.1134 38.0533 49.3418C36.9955 52.0258 36.8958 54.9926 37.7715 57.7415C38.395 59.8267 39.5527 60.9418 41.3104 61.1503C43.342 61.3927 44.9291 60.6536 46.0274 58.9549ZM43.2309 47.6337C44.1169 47.0696 44.4325 46.4684 44.1971 45.7942C43.9509 45.091 43.3716 44.733 42.5217 44.7586C42.0174 44.7826 41.5177 44.865 41.0324 45.0041C39.2996 45.4703 37.5682 45.9428 35.8381 46.4216C32.3291 47.3859 28.7002 48.3831 25.1121 49.2809C22.5719 49.9165 19.949 50.4096 17.4122 50.8864C16.635 51.0325 15.8586 51.1797 15.0826 51.3283C14.4823 51.4834 13.8543 51.4975 13.2476 51.3694C12.6915 51.1973 12.2172 50.8282 11.9138 50.3312C11.8295 50.1676 12.1339 49.51 12.5099 49.1599C13.1333 48.5471 13.8513 48.0387 14.6365 47.6545C16.2486 46.9095 17.9034 46.2605 19.5922 45.7113C22.4984 44.7894 25.4675 43.8952 28.3389 43.0305C29.731 42.6112 31.1226 42.1902 32.5136 41.7673L32.6123 41.7376C32.9765 41.6467 33.3255 41.5033 33.6486 41.312C33.8724 41.193 34.0563 41.0105 34.1771 40.7876C34.2981 40.5647 34.3505 40.3111 34.3283 40.0585C34.3058 39.8059 34.2094 39.5655 34.0511 39.3673C33.8929 39.1691 33.6801 39.022 33.4386 38.9442C33.1872 38.851 32.9241 38.7934 32.6567 38.7729C32.4757 38.7551 32.2962 38.7241 32.1196 38.6805C31.8645 38.6102 31.6054 38.5454 31.3466 38.4809C30.606 38.3232 29.8835 38.0897 29.1907 37.7841C28.9262 37.6961 28.6928 37.5335 28.5186 37.3159C28.3444 37.0983 28.2368 36.835 28.2088 36.5576C28.1809 36.2803 28.2337 36.0008 28.3609 35.7527C28.4881 35.5047 28.6845 35.2987 28.9261 35.1597C29.5028 34.7715 30.1331 34.4695 30.7971 34.2632C30.9625 34.2021 31.1276 34.1416 31.2898 34.0788C31.5613 33.9868 31.8422 33.925 32.1273 33.8946C32.2781 33.8733 32.4266 33.8514 32.5738 33.8221C33.3662 33.6637 33.7599 33.1621 33.6843 32.4116C33.6159 31.7354 33.1671 31.3428 32.4233 31.3072C32.1224 31.2926 31.8208 31.2891 31.5194 31.2859C31.226 31.2824 30.9354 31.2794 30.6438 31.2656C30.3054 31.251 29.9687 31.2084 29.6372 31.1384L29.4848 31.1056C28.564 30.908 27.6943 30.7211 27.4625 29.6809C27.1709 28.3748 27.557 27.253 28.5491 26.5206C29.0785 26.1697 29.6518 25.8896 30.2542 25.6877C30.4309 25.6195 30.607 25.5518 30.78 25.4808C30.9611 25.4134 31.1474 25.3607 31.337 25.3233C31.6454 25.275 31.941 25.166 32.2069 25.0024C32.6062 24.717 33.0101 24.1658 32.9947 23.7341C32.9794 23.3024 32.533 22.7844 32.1105 22.5359C31.7713 22.3578 31.409 22.2275 31.034 22.149C30.8229 22.0944 30.6046 22.0383 30.4027 21.9648C29.9422 21.8148 29.4987 21.6166 29.0796 21.3739C28.3795 20.9371 27.9739 20.3557 27.9381 19.7337C27.9361 19.4293 28.0081 19.1289 28.148 18.8587C28.2879 18.5881 28.4914 18.3558 28.741 18.1817C29.749 17.3744 31.0874 16.3937 32.501 15.9776C38.0965 14.3286 43.6083 13.7756 48.8838 14.334C49.1453 14.3617 49.4118 14.4141 49.6696 14.4645C49.7944 14.4891 49.9189 14.5133 50.0438 14.5354L50.0498 14.5364C58.3416 15.654 62.6002 25.5139 61.889 31.8109C61.3465 36.6256 59.3465 40.3158 55.7786 43.0883C53.2553 45.0491 50.8234 47.2224 48.7779 49.0899C46.7005 50.9682 44.9973 53.2225 43.7576 55.7338L43.7259 55.7987C43.4356 56.4446 43.0826 57.0605 42.6724 57.6377C42.2712 58.1606 41.8192 58.4314 41.3996 58.4C40.9956 58.3697 40.625 58.0699 40.3284 57.5328C39.9052 56.7833 39.6433 55.9536 39.5598 55.0969C39.4815 54.2199 39.5147 53.3366 39.6582 52.468C39.8663 51.166 40.4575 49.9555 41.3567 48.9912C41.8198 48.5428 42.3385 48.1557 42.9001 47.8391C43.0111 47.7714 43.1214 47.7029 43.2303 47.6336L43.2309 47.6337Z" fill="#E5F0FF" fill-opacity="0.5"/>
<path d="M16.7101 22.0649C16.6437 26.8192 14.9958 31.4157 12.0265 35.1294C11.9149 35.2726 11.7998 35.4148 11.6864 35.5566C11.3701 35.9517 11.043 36.36 10.7615 36.792C10.528 37.1115 10.3945 37.4932 10.3781 37.8885C10.3823 38.0503 10.4199 38.2098 10.4885 38.3566C10.5571 38.5031 10.6552 38.6343 10.7767 38.7414C11.5837 39.5092 12.4263 38.8247 12.7033 38.5998C13.0989 38.2865 13.4614 37.9334 13.7855 37.5467C16.6384 34.0648 18.4106 30.2417 19.0528 26.1844C19.2075 25.207 19.2748 24.2324 19.3459 23.2001C19.3721 22.8232 19.3982 22.4436 19.4294 22.0582C19.5743 22.1891 19.7165 22.3181 19.8558 22.445C20.3384 22.8834 20.7939 23.2974 21.2676 23.6919C21.8166 24.1495 22.3793 24.1811 22.8104 23.778C23.4616 23.1712 22.9979 22.5242 22.7213 22.1375C21.5799 20.5446 20.4653 18.9858 19.3831 17.433C18.7659 16.5483 18.0689 16.0867 17.367 16.0986C16.7194 16.1099 16.1079 16.5303 15.5988 17.3167C14.7922 18.6309 14.0806 20.0012 13.4694 21.4169L13.1731 22.0591C12.9983 22.5479 12.9506 23.0732 13.0346 23.5855C13.0368 23.7498 13.08 23.911 13.1605 24.0543C13.2408 24.1976 13.3559 24.3185 13.495 24.406C13.6386 24.4715 13.7965 24.5 13.954 24.4887C14.1115 24.4774 14.2637 24.4267 14.3965 24.3413C14.8846 24.0663 15.3135 23.6976 15.6588 23.2564C15.9408 22.8798 16.1928 22.4815 16.4121 22.0652C16.4832 21.9394 16.5579 21.8073 16.6369 21.6683L16.6444 21.7009C16.68 21.8193 16.7021 21.9415 16.7101 22.0649Z" fill="#E5F0FF" fill-opacity="0.5"/>
</g>
</g>
<defs>
<clipPath id="clip0_65_718">
<rect width="60" height="60" fill="white" transform="translate(0 59.0885) rotate(-80)"/>
</clipPath>
</defs>
</svg>
