<svg width="70" height="69" viewBox="0 0 70 69" fill="none" xmlns="http://www.w3.org/2000/svg">
<g clip-path="url(#clip0_65_718)">
<mask id="mask0_65_718" style="mask-type:luminance" maskUnits="userSpaceOnUse" x="0" y="5" width="70" height="59">
<path d="M0 5.00005L0 63.781L69.5913 63.781L69.5913 5.00005L0 5.00005Z" fill="white"/>
</mask>
<g mask="url(#mask0_65_718)">
<path d="M20.7536 43.2049C21.226 43.3575 21.7173 43.466 22.1928 43.571C22.341 43.6041 22.4892 43.6372 22.6375 43.6711C25.3809 44.2694 27.9908 45.3678 30.3366 46.9109C34.1531 49.4569 37.9972 51.8298 41.2537 53.8154C42.1622 54.3621 43.1681 54.7262 44.2158 54.8892C46.1888 55.2042 48.1925 55.2826 50.1841 55.1225C54.4461 54.7714 58.4659 52.9964 61.5973 50.084C65.9826 46.1252 67.9611 41.3913 67.4756 36.009C67.29 33.8822 66.8908 31.7797 66.2844 29.7327C65.1296 25.7207 63.4983 21.8611 61.4262 18.2366C60.3293 16.3597 59.1218 14.9536 57.7348 13.9382C57.148 13.4944 56.4736 13.1807 55.7565 13.0179C55.0392 12.8552 54.2952 12.8471 53.5745 12.9942C52.8444 13.1512 52.1562 13.4617 51.5556 13.9051C50.9549 14.3486 50.4554 14.9148 50.0903 15.5661C49.993 15.7328 49.8997 15.9025 49.7928 16.0962L49.6974 16.2681C47.9971 15.1217 46.3383 14.7707 44.633 15.1923C42.9847 15.6004 42.2959 16.2106 40.8451 18.5872C37.2357 17.0962 35.5806 18.3572 34.1678 20.924C33.8585 20.4451 33.5584 19.9745 33.263 19.5115C32.5218 18.3483 31.8198 17.2498 31.0728 16.1674C29.3559 13.6784 27.6687 11.2508 25.908 8.91337C24.8951 7.58356 23.5504 6.54349 22.0086 5.89747C20.3073 5.17613 18.8985 5.59347 17.8213 7.13807C17.4096 7.70151 17.1452 8.35888 17.0522 9.05046C16.9592 9.74203 17.0406 10.4459 17.2888 11.098C17.6243 12.0258 18.0492 12.9353 18.4598 13.815C18.6707 14.2656 18.8811 14.7163 19.0808 15.1712C21.4333 20.5261 24.5023 25.592 27.4705 30.4909L27.9614 31.3006C28.2116 31.7148 28.4441 32.1304 28.7132 32.6117C28.8028 32.7719 28.8955 32.9376 28.9929 33.1104L28.7606 33.0898C28.4642 33.0643 28.2193 33.0433 27.9753 33.0149C25.1089 32.6879 22.2175 33.3594 19.789 34.9167C17.9362 36.0586 17.1588 37.4654 17.4123 39.217C17.704 41.2421 18.8286 42.5837 20.7536 43.2049ZM30.9651 37.5738C31.7393 38.2836 32.4017 38.4329 32.992 38.031C33.6076 37.6112 33.8034 36.959 33.5587 36.1448C33.4049 35.6638 33.196 35.2025 32.9361 34.7698C32.0373 33.2167 31.1328 31.6667 30.2225 30.1196C28.3829 26.9798 26.4805 23.7329 24.6847 20.4995C23.4134 18.2105 22.2582 15.8047 21.1411 13.4778C20.7989 12.765 20.4557 12.0531 20.1114 11.342C19.8062 10.8024 19.63 10.1994 19.5968 9.58031C19.619 8.9986 19.8528 8.44496 20.2543 8.02332C20.3906 7.89954 21.1045 8.02333 21.54 8.29594C22.2933 8.73943 22.9701 9.30144 23.5444 9.9604C24.6813 11.3246 25.7364 12.755 26.704 14.2441C28.3466 16.8125 29.9788 19.4489 31.5572 21.9985C32.3224 23.2346 33.0892 24.4698 33.8578 25.7039L33.912 25.7916C34.0941 26.1198 34.3229 26.4198 34.5913 26.6823C34.7642 26.8677 34.9881 26.9981 35.2346 27.057C35.4812 27.1163 35.7398 27.1012 35.978 27.0144C36.2161 26.9273 36.4234 26.7719 36.5739 26.5678C36.7244 26.3637 36.8114 26.1201 36.8241 25.8667C36.849 25.5997 36.8366 25.3307 36.7872 25.0671C36.7575 24.8877 36.741 24.7063 36.7374 24.5244C36.7393 24.2598 36.7348 23.9928 36.7301 23.7261C36.6908 22.97 36.7293 22.2118 36.8452 21.4635C36.8618 21.1852 36.9584 20.9177 37.1235 20.6931C37.2886 20.4685 37.5151 20.2965 37.7757 20.1976C38.0364 20.0989 38.3201 20.0775 38.5925 20.1362C38.865 20.1949 39.1148 20.3313 39.3117 20.5286C39.8359 20.9852 40.2907 21.5159 40.6618 22.1038C40.7636 22.2478 40.8648 22.3916 40.9675 22.532C41.1266 22.7704 41.259 23.0257 41.3621 23.2932C41.4217 23.4334 41.4813 23.5712 41.5477 23.7058C41.9058 24.4301 42.4922 24.6805 43.1975 24.4133C43.833 24.1723 44.096 23.6371 43.9379 22.9095C43.8741 22.6151 43.7995 22.3229 43.7246 22.0309C43.652 21.7466 43.5797 21.4652 43.5175 21.1799C43.444 20.8493 43.3981 20.513 43.3799 20.1747L43.3721 20.019C43.3247 19.0786 43.2801 18.1901 44.2249 17.697C45.411 17.0774 46.5945 17.1599 47.5587 17.9286C48.0347 18.3491 48.4535 18.8304 48.8044 19.36C48.9161 19.5131 49.0271 19.6656 49.1404 19.8144C49.2524 19.9718 49.3515 20.1381 49.4367 20.3116C49.5632 20.5969 49.745 20.8542 49.9718 21.0687C50.3508 21.3805 50.9878 21.628 51.4008 21.5014C51.8138 21.3749 52.1986 20.8097 52.3293 20.3373C52.4135 19.9635 52.4456 19.5799 52.4244 19.1974C52.4224 18.9793 52.4201 18.7539 52.4389 18.5399C52.4646 18.0563 52.5412 17.5767 52.6672 17.1091C52.908 16.3198 53.3645 15.7776 53.9561 15.5819C54.2495 15.5012 54.5584 15.4931 54.8556 15.5582C55.1532 15.6233 55.4302 15.7598 55.663 15.9558C56.7036 16.7204 57.9973 17.7594 58.765 19.017C61.806 23.995 63.7667 29.1755 64.5927 34.4155C64.6336 34.6753 64.652 34.9463 64.6701 35.2084C64.6785 35.3352 64.6874 35.4618 64.6984 35.5881L64.6989 35.5942C65.7655 43.8924 57.3439 50.5575 51.0775 51.5003C46.2865 52.2224 42.2044 51.2457 38.6031 48.5171C36.056 46.5873 33.3274 44.8009 30.9942 43.3085C28.6423 41.788 26.024 40.7263 23.2775 40.179L23.2066 40.1651C22.5076 40.0519 21.8213 39.8704 21.1576 39.6235C20.5487 39.3713 20.1702 39.0048 20.0919 38.5914C20.0167 38.1933 20.2102 37.7579 20.6523 37.3323C21.2667 36.7295 22.0004 36.2619 22.8062 35.9595C23.6331 35.6569 24.4948 35.4603 25.371 35.3741C26.6824 35.2382 28.0047 35.496 29.1689 36.1149C29.7218 36.4462 30.23 36.847 30.6811 37.3074C30.7753 37.3972 30.8699 37.486 30.9651 37.5732L30.9651 37.5738Z" fill="#E5F0FF" fill-opacity="0.5"/>
<path d="M10.2901 16.2698C9.21269 21.7113 9.97832 27.3565 12.466 32.3147C12.5586 32.5052 12.6555 32.6954 12.7504 32.8847C13.0156 33.4123 13.2898 33.9575 13.5062 34.5189C13.6953 34.9401 13.755 35.4081 13.6778 35.8631C13.6337 36.0468 13.5521 36.2197 13.4383 36.3706C13.3245 36.5211 13.1806 36.647 13.016 36.7397C11.9089 37.4203 11.1134 36.4347 10.8518 36.1108C10.4764 35.6573 10.1483 35.1665 9.87236 34.6466C7.46126 29.9811 6.36616 25.1885 6.61746 20.4026C6.67805 19.2496 6.83769 18.1211 7.00683 16.9259C7.06844 16.4894 7.13071 16.05 7.18859 15.6025C6.99143 15.7168 6.79791 15.8295 6.60815 15.9405C5.95108 16.3238 5.33086 16.6856 4.69454 17.021C3.9571 17.41 3.3073 17.3096 2.91309 16.745C2.31719 15.8946 3.00323 15.2687 3.41276 14.8945C5.10159 13.3536 6.75175 11.8451 8.36331 10.3356C9.28229 9.47572 10.1897 9.11803 10.9877 9.30189C11.724 9.47189 12.3199 10.0999 12.71 11.1209C13.3118 12.8162 13.7915 14.5525 14.1455 16.3164L14.3279 17.1211C14.4088 17.7213 14.3358 18.3323 14.1156 18.8965C14.0733 19.0835 13.9849 19.257 13.8583 19.4011C13.7318 19.5451 13.5713 19.6551 13.3913 19.7212C13.2115 19.7611 13.0244 19.7554 12.8474 19.7043C12.6704 19.6532 12.5091 19.5584 12.3782 19.4287C11.8879 18.9965 11.4878 18.4717 11.2008 17.8845C10.9703 17.3863 10.7795 16.8707 10.6301 16.3424C10.5795 16.1816 10.5263 16.0127 10.4699 15.835L10.4534 15.8703C10.384 15.9968 10.3292 16.1309 10.2901 16.2698Z" fill="#E5F0FF" fill-opacity="0.5"/>
</g>
</g>
<defs>
<clipPath id="clip0_65_718">
<rect width="68.781" height="69.5913" fill="white" transform="matrix(0 -1 1 0 0 68.781)"/>
</clipPath>
</defs>
</svg>
